<?xml version="1.0" encoding="utf-8"?>
<!-- Svg Vector Icons : http://www.onlinewebfonts.com/icon -->
<!DOCTYPE svg PUBLIC "-//W3C//DTD SVG 1.1//EN" "http://www.w3.org/Graphics/SVG/1.1/DTD/svg11.dtd">
<svg version="1.1" xmlns="http://www.w3.org/2000/svg" xmlns:xlink="http://www.w3.org/1999/xlink" x="0px" y="0px" viewBox="0 0 256 256" enable-background="new 0 0 256 256" xml:space="preserve">
<metadata> Svg Vector Icons : http://www.onlinewebfonts.com/icon </metadata>
<g><g><g><path fill="#000000" d="M14.3,25.4c-4.3,1.9-5.7,7.8-2.7,11.4c2.3,2.6,2.8,2.7,19.6,2.7h15.4l18.7,75.1c12.4,49.6,19,75.6,19.6,76.5c0.5,0.7,1.5,1.8,2.2,2.3l1.3,1l62.2,0.1l62.2,0.1l1.8-1.1c2-1.1,3.9-4.2,3.9-6.3c0-2.1-1.9-5.2-3.9-6.3l-1.8-1.1h-58h-58l-2.8-11.1l-2.8-11.1h63.5c52.5,0,63.7-0.1,64.9-0.6c3.5-1.4,3,0.3,15.3-49.3c12.4-49.7,12-47.8,9.6-50.7c-2.4-2.9,3.9-2.7-91.7-2.7H65.6l-3.2-12.7c-3.4-13.7-3.9-14.9-7.1-16.2C53.1,24.4,16.4,24.4,14.3,25.4z M98.6,69.3c0,0.6,3.2,26.3,3.5,27.8l0.3,1.5H89.5H76.7L73,84.1c-2-7.9-3.6-14.5-3.6-14.8C69.5,69,98.6,68.9,98.6,69.3z M142,83.8v14.8h-12.5c-6.8,0-12.5-0.1-12.5-0.3c0-0.6-3.2-26.3-3.5-27.8l-0.3-1.5h14.4H142V83.8z M185.2,70.5c-0.2,1.5-3.5,27.2-3.5,27.8c0,0.1-5.6,0.3-12.5,0.3h-12.5V83.8V69h14.3h14.4L185.2,70.5z M229.3,69.4c0,0.2-1.6,6.9-3.6,14.8l-3.6,14.5h-12.8h-12.8l0.3-1.5c0.2-1.5,3.5-27.2,3.5-27.8C200.2,68.9,229.3,69,229.3,69.4z M104.1,113.6c0,0.6,3.2,26.3,3.5,27.8l0.3,1.5H97.8H87.7l-3.6-14.5c-2-7.9-3.6-14.5-3.6-14.8C80.6,113.3,104.1,113.2,104.1,113.6z M142,128.1v14.8h-9.7c-5.3,0-9.7-0.1-9.7-0.3c0-0.6-3.2-26.3-3.5-27.8l-0.3-1.5h11.6H142V128.1z M179.6,114.8c-0.2,1.5-3.5,27.2-3.5,27.8c0,0.1-4.3,0.3-9.7,0.3h-9.7v-14.8v-14.8h11.5h11.6L179.6,114.8z M218.2,113.7c0,0.2-1.6,6.9-3.6,14.8l-3.6,14.5H201h-10.1l0.3-1.5c0.2-1.5,3.5-27.2,3.5-27.8C194.6,113.2,218.2,113.3,218.2,113.7z"/><path fill="#000000" d="M99.5,202.8c-10.4,3.6-13.5,16.7-5.8,24.4c3,3,5.8,4.1,10.4,4.2c3.4,0,4.2-0.2,6.3-1.2c3.5-1.8,4.9-3.2,6.7-6.5c1.4-2.6,1.6-3.3,1.6-6.8c0-3.6-0.1-4.2-1.7-6.9C113.5,203.5,106.1,200.5,99.5,202.8z"/><path fill="#000000" d="M190,202.8c-10.4,3.6-13.5,16.7-5.8,24.4c3,3,5.8,4.1,10.4,4.2c3.6,0,4.2-0.1,6.8-1.6c5.1-2.8,7.7-7.2,7.7-13c0-3.1-0.2-3.9-1.6-6.7C204.2,203.5,196.8,200.4,190,202.8z"/></g></g></g>
</svg>